<svg height="512" viewBox="0 0 64 64" width="512" xmlns="http://www.w3.org/2000/svg"><g id="detail"><path d="m13 44h2v2h-2z"/><path d="m17 44h34v2h-34z"/><path d="m13 40h2v2h-2z"/><path d="m17 40h34v2h-34z"/><path d="m13 48h2v2h-2z"/><path d="m17 48h34v2h-34z"/><path d="m55 2h-41a5 5 0 0 0 -5 5v47h-6a1 1 0 0 0 -1 1 7.008 7.008 0 0 0 7 7h45a1 1 0 0 0 1-1v-51h6a1 1 0 0 0 1-1 7.008 7.008 0 0 0 -7-7zm-46 58a5.009 5.009 0 0 1 -4.9-4h40.01a6.945 6.945 0 0 0 3 4zm44 0c-2.99 0-7-2.47-7-5a1 1 0 0 0 -1-1h-34v-47a3.009 3.009 0 0 1 3-3h39zm2-52v-4a5.009 5.009 0 0 1 4.9 4z"/><path d="m32 6a16 16 0 1 0 16 16 16.021 16.021 0 0 0 -16-16zm0 30a14 14 0 1 1 14-14 14.015 14.015 0 0 1 -14 14z"/><path d="m40 14h-16a1 1 0 0 0 -1 1v14a1 1 0 0 0 1 1h16a1 1 0 0 0 1-1v-14a1 1 0 0 0 -1-1zm-11 2h6v3.38l-2.55-1.27a.956.956 0 0 0 -.9 0l-2.55 1.27zm10 12h-14v-12h2v5a1 1 0 0 0 1.45.89l3.55-1.77 3.55 1.77a1.03 1.03 0 0 0 .45.11 1.014 1.014 0 0 0 .53-.15 1 1 0 0 0 .47-.85v-5h2z"/></g></svg>